<mxfile host="app.diagrams.net" agent="Mozilla/5.0 (Windows NT 10.0; Win64; x64) AppleWebKit/537.36 (KHTML, like Gecko) Chrome/128.0.0.0 Safari/537.36 Edg/128.0.0.0" version="24.7.14">
  <diagram name="Pagina-1" id="Z3BjgbKwMMuWF7imwQWJ">
    <mxGraphModel dx="576" dy="312" grid="1" gridSize="10" guides="0" tooltips="1" connect="1" arrows="1" fold="1" page="1" pageScale="1" pageWidth="827" pageHeight="1169" math="0" shadow="0">
      <root>
        <mxCell id="0" />
        <mxCell id="1" parent="0" />
        <mxCell id="AkzHSdlNlXmFXYJYFcqp-19" value="" style="group" vertex="1" connectable="0" parent="1">
          <mxGeometry x="145" y="300" width="355" height="300" as="geometry" />
        </mxCell>
        <mxCell id="AkzHSdlNlXmFXYJYFcqp-18" value="" style="endArrow=none;dashed=1;html=1;dashPattern=1 3;strokeWidth=2;rounded=0;" edge="1" parent="AkzHSdlNlXmFXYJYFcqp-19">
          <mxGeometry width="50" height="50" relative="1" as="geometry">
            <mxPoint x="52.87234042553192" y="75" as="sourcePoint" />
            <mxPoint x="249.2553191489362" y="75" as="targetPoint" />
          </mxGeometry>
        </mxCell>
        <mxCell id="AkzHSdlNlXmFXYJYFcqp-17" value="" style="endArrow=none;dashed=1;html=1;dashPattern=1 3;strokeWidth=2;rounded=0;exitX=0.835;exitY=0.022;exitDx=0;exitDy=0;exitPerimeter=0;" edge="1" parent="AkzHSdlNlXmFXYJYFcqp-19">
          <mxGeometry width="50" height="50" relative="1" as="geometry">
            <mxPoint x="234.30000000000004" y="255.98999999999995" as="sourcePoint" />
            <mxPoint x="234.14893617021278" y="30" as="targetPoint" />
          </mxGeometry>
        </mxCell>
        <mxCell id="AkzHSdlNlXmFXYJYFcqp-1" value="" style="endArrow=classic;html=1;rounded=0;" edge="1" parent="AkzHSdlNlXmFXYJYFcqp-19">
          <mxGeometry width="50" height="50" relative="1" as="geometry">
            <mxPoint x="52.87234042553192" y="255" as="sourcePoint" />
            <mxPoint x="355" y="255" as="targetPoint" />
          </mxGeometry>
        </mxCell>
        <mxCell id="AkzHSdlNlXmFXYJYFcqp-2" value="" style="endArrow=classic;html=1;rounded=0;" edge="1" parent="AkzHSdlNlXmFXYJYFcqp-19">
          <mxGeometry width="50" height="50" relative="1" as="geometry">
            <mxPoint x="52.87234042553192" y="255" as="sourcePoint" />
            <mxPoint x="52.87234042553192" as="targetPoint" />
          </mxGeometry>
        </mxCell>
        <mxCell id="AkzHSdlNlXmFXYJYFcqp-3" value="Rendimento" style="text;html=1;align=center;verticalAlign=middle;whiteSpace=wrap;rounded=0;rotation=-90;" vertex="1" parent="AkzHSdlNlXmFXYJYFcqp-19">
          <mxGeometry x="-22.659574468085108" y="105" width="90.63829787234043" height="45" as="geometry" />
        </mxCell>
        <mxCell id="AkzHSdlNlXmFXYJYFcqp-4" value="Rischio" style="text;html=1;align=center;verticalAlign=middle;whiteSpace=wrap;rounded=0;rotation=0;" vertex="1" parent="AkzHSdlNlXmFXYJYFcqp-19">
          <mxGeometry x="158.61702127659575" y="255" width="90.63829787234043" height="45" as="geometry" />
        </mxCell>
        <mxCell id="AkzHSdlNlXmFXYJYFcqp-5" value="" style="endArrow=none;html=1;rounded=0;curved=1;" edge="1" parent="AkzHSdlNlXmFXYJYFcqp-19">
          <mxGeometry width="50" height="50" relative="1" as="geometry">
            <mxPoint x="203.93617021276597" y="210" as="sourcePoint" />
            <mxPoint x="294.5744680851064" y="30" as="targetPoint" />
            <Array as="points">
              <mxPoint x="128.40425531914894" y="150" />
              <mxPoint x="113.29787234042554" y="90" />
            </Array>
          </mxGeometry>
        </mxCell>
        <mxCell id="AkzHSdlNlXmFXYJYFcqp-6" value="" style="ellipse;whiteSpace=wrap;html=1;aspect=fixed;fillColor=#dae8fc;strokeColor=#6c8ebf;strokeWidth=0;" vertex="1" parent="AkzHSdlNlXmFXYJYFcqp-19">
          <mxGeometry x="232.63829787234044" y="49.5" width="3" height="3" as="geometry" />
        </mxCell>
        <mxCell id="AkzHSdlNlXmFXYJYFcqp-10" value="" style="ellipse;whiteSpace=wrap;html=1;aspect=fixed;fillColor=#dae8fc;strokeColor=#6c8ebf;strokeWidth=0;" vertex="1" parent="AkzHSdlNlXmFXYJYFcqp-19">
          <mxGeometry x="232.63829787234044" y="73.5" width="3" height="3" as="geometry" />
        </mxCell>
        <mxCell id="AkzHSdlNlXmFXYJYFcqp-11" value="" style="ellipse;whiteSpace=wrap;html=1;aspect=fixed;fillColor=#dae8fc;strokeColor=#6c8ebf;strokeWidth=0;" vertex="1" parent="AkzHSdlNlXmFXYJYFcqp-19">
          <mxGeometry x="173.72340425531917" y="73.5" width="3" height="3" as="geometry" />
        </mxCell>
        <mxCell id="AkzHSdlNlXmFXYJYFcqp-12" value="Q" style="text;html=1;align=center;verticalAlign=middle;whiteSpace=wrap;rounded=0;" vertex="1" parent="AkzHSdlNlXmFXYJYFcqp-19">
          <mxGeometry x="219.04255319148936" y="30" width="15.106382978723405" height="15" as="geometry" />
        </mxCell>
        <mxCell id="AkzHSdlNlXmFXYJYFcqp-15" value="P" style="text;html=1;align=center;verticalAlign=middle;whiteSpace=wrap;rounded=0;" vertex="1" parent="AkzHSdlNlXmFXYJYFcqp-19">
          <mxGeometry x="238.6808510638298" y="75" width="15.106382978723405" height="15" as="geometry" />
        </mxCell>
        <mxCell id="AkzHSdlNlXmFXYJYFcqp-16" value="R" style="text;html=1;align=center;verticalAlign=middle;whiteSpace=wrap;rounded=0;" vertex="1" parent="AkzHSdlNlXmFXYJYFcqp-19">
          <mxGeometry x="158.61702127659575" y="60" width="15.106382978723405" height="15" as="geometry" />
        </mxCell>
      </root>
    </mxGraphModel>
  </diagram>
</mxfile>
